<svg width="11" height="9" viewBox="0 0 11 9" fill="none" xmlns="http://www.w3.org/2000/svg">
<path d="M9.96875 4.09385H1.86427L4.96761 1.13797C5.13011 0.983193 5.13641 0.726037 4.98163 0.563537C4.82705 0.40124 4.56989 0.39474 4.40719 0.549521L0.863062 3.92546C0.709703 4.07902 0.625 4.28296 0.625 4.5001C0.625 4.71704 0.709703 4.92118 0.870172 5.08144L4.40739 8.45047C4.486 8.52543 4.58675 8.5626 4.6875 8.5626C4.79475 8.5626 4.902 8.52035 4.98183 8.43646C5.13661 8.27396 5.13031 8.017 4.96781 7.86222L1.85147 4.90635H9.96875C10.193 4.90635 10.375 4.72435 10.375 4.5001C10.375 4.27585 10.193 4.09385 9.96875 4.09385Z" fill="#B59EC9"/>
</svg>
