<svg width="34" height="34" viewBox="0 0 34 34" fill="none" xmlns="http://www.w3.org/2000/svg">
<g clip-path="url(#clip0)">
<path d="M29.1035 0H4.89643C3.88108 0 3.05505 0.826027 3.05505 1.84138V32.1587C3.05505 33.174 3.88108 34.0001 4.89637 34.0001H29.1035C30.1188 34.0001 30.9448 33.174 30.9448 32.1587C30.9448 30.726 30.9448 2.67823 30.9448 1.84138C30.9449 0.826027 30.1189 0 29.1035 0V0ZM4.05115 1.84138C4.05115 1.37527 4.43033 0.996094 4.89643 0.996094H29.1035C29.5696 0.996094 29.9488 1.37527 29.9488 1.84138V10.6688H4.05115V1.84138ZM29.1036 33.0039H4.89637C4.43033 33.0039 4.05115 32.6247 4.05115 32.1586V11.6649H29.9487V32.1586C29.9488 32.6247 29.5696 33.0039 29.1036 33.0039Z" fill="white"/>
<path d="M26.8335 2.34424H11.0852C10.8102 2.34424 10.5872 2.56723 10.5872 2.84229C10.5872 3.11734 10.8102 3.34033 11.0852 3.34033H26.8335C26.9127 3.34033 26.9771 3.40475 26.9771 3.48397V8.12763C26.9771 8.20678 26.9127 8.27126 26.8335 8.27126H7.1664C7.08724 8.27126 7.02283 8.20685 7.02283 8.12763V3.48397C7.02283 3.40481 7.08724 3.34033 7.1664 3.34033H8.75709C9.03215 3.34033 9.25514 3.11734 9.25514 2.84229C9.25514 2.56723 9.03215 2.34424 8.75709 2.34424H7.1664C6.538 2.34424 6.02673 2.8555 6.02673 3.48397V8.12763C6.02673 8.75603 6.538 9.26736 7.1664 9.26736H26.8335C27.4619 9.26736 27.9732 8.75609 27.9732 8.12763V3.48397C27.9732 2.85557 27.4619 2.34424 26.8335 2.34424Z" fill="white"/>
<path d="M10.7673 13.126H7.91181C7.27425 13.126 6.75562 13.6447 6.75562 14.2822V17.1377C6.75562 17.7753 7.27431 18.294 7.91181 18.294H10.7673C11.4048 18.294 11.9235 17.7753 11.9235 17.1377V14.2822C11.9235 13.6447 11.4048 13.126 10.7673 13.126ZM10.9274 17.1377C10.9274 17.226 10.8555 17.2979 10.7672 17.2979H7.91175C7.82343 17.2979 7.75164 17.226 7.75164 17.1377V14.2822C7.75164 14.1939 7.82349 14.1221 7.91175 14.1221H10.7672C10.8555 14.1221 10.9274 14.1939 10.9274 14.2822V17.1377Z" fill="white"/>
<path d="M18.4278 13.126H15.5723C14.9347 13.126 14.416 13.6447 14.416 14.2822V17.1377C14.416 17.7753 14.9347 18.294 15.5723 18.294H18.4278C19.0653 18.294 19.584 17.7753 19.584 17.1377V14.2822C19.584 13.6447 19.0653 13.126 18.4278 13.126ZM18.5879 17.1377C18.5879 17.226 18.5161 17.2979 18.4278 17.2979H15.5723C15.484 17.2979 15.4121 17.226 15.4121 17.1377V14.2822C15.4121 14.1939 15.484 14.1221 15.5723 14.1221H18.4278C18.5161 14.1221 18.5879 14.1939 18.5879 14.2822V17.1377Z" fill="white"/>
<path d="M26.0883 13.126H23.2328C22.5952 13.126 22.0765 13.6447 22.0765 14.2822V17.1377C22.0765 17.7753 22.5952 18.294 23.2328 18.294H26.0883C26.7258 18.294 27.2445 17.7753 27.2445 17.1377V14.2822C27.2445 13.6447 26.7258 13.126 26.0883 13.126ZM26.2484 17.1377C26.2484 17.226 26.1765 17.2979 26.0883 17.2979H23.2328C23.1445 17.2979 23.0726 17.226 23.0726 17.1377V14.2822C23.0726 14.1939 23.1445 14.1221 23.2328 14.1221H26.0883C26.1766 14.1221 26.2484 14.1939 26.2484 14.2822V17.1377Z" fill="white"/>
<path d="M10.7673 19.5781H7.91181C7.27425 19.5781 6.75562 20.0968 6.75562 20.7344V23.5899C6.75562 24.2274 7.27431 24.7461 7.91181 24.7461H10.7673C11.4048 24.7461 11.9235 24.2274 11.9235 23.5899V20.7344C11.9235 20.0968 11.4048 19.5781 10.7673 19.5781ZM10.9274 23.5899C10.9274 23.6782 10.8555 23.75 10.7672 23.75H7.91175C7.82343 23.75 7.75164 23.6782 7.75164 23.5899V20.7344C7.75164 20.6461 7.82349 20.5742 7.91175 20.5742H10.7672C10.8555 20.5742 10.9274 20.6461 10.9274 20.7344V23.5899Z" fill="white"/>
<path d="M18.4278 19.5781H15.5723C14.9347 19.5781 14.416 20.0968 14.416 20.7344V23.5899C14.416 24.2274 14.9347 24.7461 15.5723 24.7461H18.4278C19.0653 24.7461 19.584 24.2274 19.584 23.5899V20.7344C19.584 20.0968 19.0653 19.5781 18.4278 19.5781ZM18.5879 23.5899C18.5879 23.6782 18.5161 23.75 18.4278 23.75H15.5723C15.484 23.75 15.4121 23.6782 15.4121 23.5899V20.7344C15.4121 20.6461 15.484 20.5742 15.5723 20.5742H18.4278C18.5161 20.5742 18.5879 20.6461 18.5879 20.7344V23.5899Z" fill="white"/>
<path d="M10.7673 26.0302H7.91181C7.27425 26.0302 6.75562 26.5488 6.75562 27.1864V30.0419C6.75562 30.6795 7.27431 31.1982 7.91181 31.1982H10.7673C11.4048 31.1982 11.9235 30.6795 11.9235 30.0419V27.1864C11.9235 26.5488 11.4048 26.0302 10.7673 26.0302ZM10.9274 30.0419C10.9274 30.1302 10.8555 30.2021 10.7672 30.2021H7.91175C7.82343 30.2021 7.75164 30.1302 7.75164 30.0419V27.1864C7.75164 27.0981 7.82349 27.0262 7.91175 27.0262H10.7672C10.8555 27.0262 10.9274 27.0981 10.9274 27.1864V30.0419Z" fill="white"/>
<path d="M18.4278 26.0302H15.5723C14.9347 26.0302 14.416 26.5488 14.416 27.1864V30.0419C14.416 30.6795 14.9347 31.1982 15.5723 31.1982H18.4278C19.0653 31.1982 19.584 30.6795 19.584 30.0419V27.1864C19.584 26.5488 19.0653 26.0302 18.4278 26.0302ZM18.5879 30.0419C18.5879 30.1302 18.5161 30.2021 18.4278 30.2021H15.5723C15.484 30.2021 15.4121 30.1302 15.4121 30.0419V27.1864C15.4121 27.0981 15.484 27.0262 15.5723 27.0262H18.4278C18.5161 27.0262 18.5879 27.0981 18.5879 27.1864V30.0419Z" fill="white"/>
<path d="M26.0883 19.5781H23.2328C22.5952 19.5781 22.0765 20.0968 22.0765 20.7344V24.224C22.0765 24.4991 22.2995 24.7221 22.5746 24.7221C22.8496 24.7221 23.0726 24.4991 23.0726 24.224V20.7344C23.0726 20.6461 23.1445 20.5742 23.2328 20.5742H26.0883C26.1766 20.5742 26.2484 20.6461 26.2484 20.7344V30.0419C26.2484 30.1302 26.1765 30.2021 26.0883 30.2021H23.2328C23.1445 30.2021 23.0726 30.1302 23.0726 30.0419V26.5522C23.0726 26.2772 22.8496 26.0542 22.5746 26.0542C22.2995 26.0542 22.0765 26.2772 22.0765 26.5522V30.0419C22.0765 30.6795 22.5952 31.1982 23.2328 31.1982H26.0883C26.7258 31.1982 27.2445 30.6795 27.2445 30.0419V20.7344C27.2445 20.0968 26.7258 19.5781 26.0883 19.5781Z" fill="white"/>
</g>
<defs>
<clipPath id="clip0">
<rect width="34" height="34" fill="white"/>
</clipPath>
</defs>
</svg>
