<svg width="18" height="17" viewBox="0 0 18 17" fill="none" xmlns="http://www.w3.org/2000/svg">
<path d="M12.7392 0H5.26081C2.35911 0 0 2.23684 0 4.98816V11.9895C0 14.7632 2.35911 17 5.26081 17H12.7392C15.6409 17 18 14.7632 18 12.0118V4.98816C18 2.23684 15.6409 0 12.7392 0ZM9.0118 12.9289C6.58191 12.9289 4.60026 11.05 4.60026 8.74605C4.60026 6.4421 6.58191 4.56316 9.0118 4.56316C11.4417 4.56316 13.4233 6.4421 13.4233 8.74605C13.4233 11.05 11.4417 12.9289 9.0118 12.9289ZM13.8244 4.80921C13.3761 4.80921 12.9987 4.47368 12.9987 4.02632C12.9987 3.60132 13.3526 3.24342 13.8244 3.24342C14.2726 3.24342 14.6501 3.57895 14.6501 4.02632C14.6501 4.45132 14.2726 4.80921 13.8244 4.80921Z" fill="#B59EC9"/>
</svg>
