<svg width="20" height="20" viewBox="0 0 20 20" fill="none" xmlns="http://www.w3.org/2000/svg">
<g clip-path="url(#clip0)">
<path d="M13.0896 8.08926L18.3336 2.8452V5C18.3336 5.46023 18.7067 5.83332 19.167 5.83332C19.6272 5.83332 20.0003 5.46023 20.0003 5V0.833398C20.0003 0.805937 19.9989 0.778477 19.9962 0.751094C19.995 0.73875 19.9927 0.726797 19.9909 0.714648C19.9888 0.699922 19.9871 0.685156 19.9842 0.670508C19.9814 0.656523 19.9776 0.642969 19.9741 0.629258C19.9709 0.616641 19.9682 0.603945 19.9644 0.591445C19.9603 0.577969 19.9552 0.564961 19.9505 0.551797C19.946 0.539336 19.9419 0.526758 19.9368 0.514453C19.9318 0.502148 19.9257 0.490391 19.9201 0.478398C19.9141 0.465742 19.9085 0.452969 19.9019 0.440547C19.8957 0.429062 19.8887 0.418125 19.882 0.406953C19.8748 0.394805 19.8679 0.3825 19.86 0.370625C19.8517 0.358281 19.8425 0.34668 19.8336 0.334805C19.8262 0.324922 19.8193 0.314766 19.8115 0.305117C19.7941 0.284062 19.7759 0.263789 19.7567 0.244531C19.7565 0.244375 19.7564 0.244219 19.7563 0.244062C19.7561 0.243906 19.7559 0.243828 19.7558 0.243672C19.7365 0.224414 19.7163 0.206172 19.6952 0.188867C19.6856 0.180937 19.6754 0.174062 19.6655 0.166641C19.6536 0.157773 19.642 0.148594 19.6297 0.140352C19.6178 0.132422 19.6055 0.125547 19.5933 0.118281C19.5822 0.111602 19.5713 0.104609 19.5598 0.0984375C19.5473 0.0917969 19.5346 0.0861719 19.5219 0.0801953C19.5099 0.0745312 19.4981 0.0685547 19.4859 0.0634375C19.4736 0.0583594 19.461 0.0542187 19.4485 0.0497656C19.4353 0.0450391 19.4223 0.04 19.4089 0.0359375C19.3964 0.0321484 19.3837 0.029375 19.3711 0.0262109C19.3573 0.0227344 19.3438 0.0189062 19.3298 0.0161328C19.3152 0.0132422 19.3004 0.0114844 19.2857 0.009375C19.2736 0.00765625 19.2616 0.0053125 19.2493 0.00410156C19.2219 0.00144531 19.1945 0 19.167 0H15.0003C14.5401 0 14.167 0.373086 14.167 0.83332C14.167 1.29355 14.5401 1.66664 15.0003 1.66664H17.1551L11.9111 6.91074C11.5856 7.23617 11.5856 7.76383 11.9111 8.08926C12.2365 8.41469 12.7641 8.41469 13.0896 8.08926Z" fill="#BDBDBD"/>
<path d="M6.91074 11.9108L1.66668 17.1549V15.0001C1.66668 14.5398 1.29359 14.1668 0.833359 14.1668C0.373086 14.1668 0 14.5398 0 15.0001V19.1668C0 19.1942 0.00144531 19.2216 0.00414062 19.249C0.00535156 19.2613 0.00765625 19.2732 0.00941406 19.2854C0.0115234 19.3002 0.0132422 19.315 0.0161719 19.3296C0.0189453 19.3436 0.0227734 19.3571 0.02625 19.3708C0.0294141 19.3834 0.0321875 19.3961 0.0359766 19.4086C0.0400391 19.4221 0.0450781 19.4351 0.0498047 19.4482C0.0542969 19.4607 0.0583984 19.4733 0.0634766 19.4856C0.0685547 19.4979 0.0745703 19.5096 0.0802344 19.5216C0.0862109 19.5343 0.0918359 19.5471 0.0984766 19.5595C0.104648 19.571 0.111641 19.5819 0.11832 19.593C0.125586 19.6052 0.132461 19.6175 0.140391 19.6294C0.148633 19.6418 0.157812 19.6533 0.16668 19.6652C0.174102 19.6751 0.180977 19.6853 0.188906 19.6949C0.206211 19.716 0.224453 19.7363 0.243711 19.7555C0.243867 19.7557 0.243945 19.7559 0.244102 19.756C0.244258 19.7561 0.244414 19.7562 0.24457 19.7564C0.263828 19.7756 0.284102 19.7939 0.305156 19.8112C0.314805 19.8191 0.324961 19.826 0.334844 19.8334C0.346719 19.8422 0.35832 19.8514 0.370664 19.8597C0.3825 19.8676 0.394805 19.8745 0.406992 19.8818C0.418164 19.8884 0.429062 19.8954 0.440586 19.9016C0.453008 19.9082 0.465781 19.9139 0.478437 19.9198C0.49043 19.9255 0.502226 19.9315 0.514492 19.9366C0.526797 19.9416 0.539336 19.9457 0.551836 19.9502C0.565 19.955 0.578008 19.96 0.591484 19.9641C0.603984 19.9679 0.61668 19.9707 0.629297 19.9738C0.643008 19.9773 0.656562 19.9811 0.670547 19.9839C0.685195 19.9868 0.699961 19.9885 0.714687 19.9906C0.726836 19.9923 0.738828 19.9947 0.751133 19.9959C0.778476 19.9986 0.805898 20 0.83332 20H0.833359H5C5.46023 20 5.83332 19.627 5.83332 19.1667C5.83332 18.7065 5.46023 18.3334 5 18.3334H2.8452L8.08926 13.0893C8.41469 12.7639 8.41469 12.2362 8.08926 11.9108C7.76383 11.5854 7.23617 11.5854 6.91074 11.9108Z" fill="#BDBDBD"/>
<path d="M19.8338 19.6651C19.8426 19.6533 19.8518 19.6418 19.86 19.6294C19.8679 19.6176 19.8748 19.6052 19.8821 19.593C19.8887 19.5819 19.8957 19.571 19.9018 19.5596C19.9085 19.5471 19.9141 19.5343 19.9201 19.5216C19.9258 19.5097 19.9317 19.4979 19.9368 19.4857C19.9419 19.4734 19.9461 19.4608 19.9505 19.4483C19.9552 19.4351 19.9603 19.4221 19.9643 19.4087C19.9681 19.3962 19.9709 19.3835 19.9741 19.3709C19.9775 19.3571 19.9814 19.3436 19.9841 19.3296C19.987 19.315 19.9888 19.3002 19.9909 19.2855C19.9926 19.2734 19.995 19.2614 19.9962 19.2491C19.9989 19.2217 20.0003 19.1942 20.0003 19.1668V15.0001C20.0003 14.5398 19.6272 14.1668 19.167 14.1668C18.7068 14.1668 18.3337 14.5398 18.3337 15.0001V17.1549L13.0896 11.9108C12.7641 11.5854 12.2365 11.5854 11.9111 11.9108C11.5856 12.2362 11.5856 12.7639 11.9111 13.0893L17.1551 18.3334H15.0003C14.5401 18.3334 14.167 18.7065 14.167 19.1667C14.167 19.6269 14.5401 20.0001 15.0003 20.0001H19.167C19.1945 20.0001 19.2219 19.9986 19.2492 19.9959C19.2615 19.9947 19.2735 19.9924 19.2857 19.9907C19.3004 19.9886 19.3152 19.9868 19.3298 19.9839C19.3438 19.9811 19.3573 19.9773 19.371 19.9738C19.3837 19.9707 19.3964 19.9679 19.4089 19.9641C19.4223 19.96 19.4353 19.955 19.4484 19.9503C19.4609 19.9458 19.4735 19.9417 19.4858 19.9366C19.4981 19.9315 19.5098 19.9255 19.5218 19.9199C19.5345 19.9139 19.5473 19.9083 19.5597 19.9016C19.5712 19.8955 19.5821 19.8885 19.5932 19.8818C19.6054 19.8746 19.6177 19.8677 19.6296 19.8597C19.6419 19.8515 19.6535 19.8423 19.6653 19.8335C19.6752 19.8261 19.6854 19.8191 19.6951 19.8112C19.716 19.7941 19.7361 19.7759 19.7553 19.7568C19.7556 19.7566 19.7559 19.7563 19.7562 19.756C19.7565 19.7557 19.7567 19.7554 19.757 19.7551C19.7761 19.736 19.7942 19.7159 19.8114 19.695C19.8194 19.6853 19.8263 19.6751 19.8338 19.6651Z" fill="#BDBDBD"/>
<path d="M2.8452 1.66668H5C5.46023 1.66668 5.83332 1.29359 5.83332 0.833359C5.83332 0.373086 5.46023 0 5 0H0.83332H0.833281C0.805859 0 0.778398 0.00144531 0.751094 0.00414062C0.73875 0.00535156 0.726797 0.00765625 0.714648 0.00941406C0.699922 0.0115234 0.685156 0.0132422 0.670508 0.0161328C0.656523 0.0189062 0.642969 0.0227344 0.629258 0.0262109C0.616641 0.029375 0.603945 0.0321484 0.591445 0.0359375C0.577969 0.04 0.564961 0.0450781 0.551797 0.0498047C0.539336 0.0542969 0.526758 0.0583984 0.514453 0.0634766C0.502148 0.0685937 0.490312 0.0745703 0.47832 0.0802734C0.465703 0.0862109 0.45293 0.0918359 0.440547 0.0984766C0.429023 0.104648 0.418086 0.11168 0.406875 0.118359C0.394766 0.125586 0.382461 0.132422 0.370625 0.140352C0.358242 0.148633 0.346602 0.157852 0.334688 0.166758C0.324844 0.174141 0.314727 0.180977 0.305156 0.188867C0.262695 0.223711 0.223711 0.262695 0.188867 0.305156C0.180977 0.314727 0.174141 0.324844 0.166758 0.334727C0.157852 0.346641 0.148633 0.358281 0.140352 0.370664C0.132422 0.3825 0.125586 0.394766 0.11832 0.406914C0.111641 0.418086 0.104609 0.429062 0.0984375 0.440586C0.0917969 0.452969 0.0862109 0.465703 0.0802344 0.478359C0.0745703 0.490352 0.0685547 0.502187 0.0634375 0.514492C0.0583594 0.526797 0.0542578 0.539336 0.0497656 0.551836C0.0450391 0.565 0.04 0.578008 0.0358984 0.591484C0.0321094 0.603984 0.0293359 0.61668 0.0261719 0.629297C0.0226953 0.643008 0.0188672 0.656562 0.0160937 0.670547C0.0132031 0.685195 0.0114844 0.699961 0.009375 0.714687C0.00765625 0.726836 0.0053125 0.738828 0.00410156 0.751133C0.00144531 0.778437 0 0.805859 0 0.83332V5C0 5.46023 0.373086 5.83332 0.83332 5.83332C1.29355 5.83332 1.66664 5.46023 1.66664 5V2.8452L6.9107 8.08926C7.23613 8.41469 7.76379 8.41469 8.08922 8.08926C8.41465 7.76383 8.41465 7.23617 8.08922 6.91074L2.8452 1.66668Z" fill="#BDBDBD"/>
</g>
<defs>
<clipPath id="clip0">
<rect width="20" height="20" fill="white"/>
</clipPath>
</defs>
</svg>
