<svg width="29" height="16" viewBox="0 0 29 16" fill="none" xmlns="http://www.w3.org/2000/svg">
<path fill-rule="evenodd" clip-rule="evenodd" d="M24.9586 9.73197C25.9206 10.6079 26.9359 11.432 27.7987 12.3962C28.1798 12.8247 28.5407 13.2669 28.8167 13.7642C29.2078 14.4711 28.8536 15.249 28.1739 15.2912L23.9491 15.2894C22.8595 15.3737 21.9902 14.9646 21.2593 14.2698C20.6744 13.7141 20.1327 13.1228 19.5702 12.5484C19.3397 12.3136 19.0983 12.0927 18.81 11.9181C18.2333 11.5689 17.7326 11.6758 17.4031 12.2368C17.0674 12.8074 16.9913 13.4392 16.9583 14.0751C16.913 15.0029 16.6123 15.2468 15.613 15.2893C13.4774 15.3832 11.4505 15.0819 9.56765 14.0771C7.90765 13.1914 6.62039 11.9409 5.49997 10.5252C3.31849 7.76866 1.64791 4.73962 0.14646 1.62573C-0.191505 0.924163 0.0556561 0.547567 0.885657 0.534237C2.26391 0.509267 3.64197 0.511045 5.02184 0.53246C5.58201 0.540103 5.95284 0.839744 6.16913 1.33328C6.91481 3.04325 7.82723 4.67013 8.97252 6.17812C9.27752 6.5796 9.58852 6.98107 10.0314 7.26365C10.5213 7.57654 10.8944 7.47284 11.1248 6.96383C11.2711 6.64109 11.3351 6.29346 11.3681 5.94779C11.4773 4.75855 11.4917 3.57136 11.3002 2.3863C11.1826 1.6467 10.7359 1.16791 9.94458 1.02795C9.54078 0.956598 9.6009 0.816463 9.79642 0.601506C10.136 0.230775 10.4554 0 11.0921 0H15.8667C16.6184 0.138358 16.7853 0.453284 16.8883 1.15867L16.8924 6.10498C16.8842 6.37806 17.0386 7.18839 17.566 7.36913C17.9881 7.4978 18.2663 7.18288 18.5196 6.93327C19.6628 5.8017 20.4787 4.46442 21.2076 3.07968C21.5311 2.4708 21.8092 1.83846 22.0787 1.20665C22.2784 0.73782 22.5918 0.507134 23.1581 0.517353L27.7534 0.521174C27.8897 0.521174 28.0276 0.523041 28.1595 0.544101C28.9339 0.667175 29.1461 0.977836 28.9069 1.68304C28.5301 2.78946 27.7969 3.71149 27.08 4.63779C26.3136 5.62673 25.494 6.58182 24.7341 7.57663C24.0358 8.48506 24.0913 8.94297 24.9586 9.73197Z" fill="#B59EC9"/>
</svg>
